# xmcd CD database file
#
# Track frame offsets:
#	150
#	16690
#	23530
#	38882
#	54079
#	73245
#	90049
#	106595
#	119797
#	134340
#	148949
#	163771
#	179816
#	195496
#	209178
#	222974
#	238092
#	253748
#	271905
#
# Disc length: 3829 seconds
#
# Revision: 0
# Processed by: cddbd v1.5.1PL0 Copyright (c) Steve Scherf et al.
# Submitted via: CDex 1.50beta8
#
DISCID=170ef313
DTITLE=柳家三亀松 - 三亀松　都々逸集　Ｄｉｓｃ１
DYEAR=1900
DGENRE=Vocal
TTITLE0=〜この袖で〜、弱虫がたった一言〜、うたた寝の〜、鉄の鎖で
TTITLE1=僕と分かれて〜、金は出来たし
TTITLE2=夕立がザット〜、とめてよかった〜、あたしゃ海岸
TTITLE3=あの虫は〜、泣くが情〜、草と寝て〜、鐘が鳴りました
TTITLE4=はなは浮気で〜、写真手にとり〜、世帯かためて（新内入り）
TTITLE5=ねえ貴方〜、鐘が鳴りました〜、私の商売漫談師でござる
TTITLE6=あれさ御覧よ〜、私の商売落語家でござる
TTITLE7=この袖で〜、あたしの傍惚れ
TTITLE8=恋のささなき〜、見送る松原〜、七十五日を〜、首尾の朝
TTITLE9=どこで唄うか〜、泣いて別れた〜、土手に並んで〜、とめる実意を
TTITLE10=泣かせるばかりの〜、うわべだけ〜、つねられた〜、雨戸たたいて
TTITLE11=うたたねしては（小唄入り）〜、ままよ三度笠（馬子唄入り）
TTITLE12=なんの私に〜、狭い心と〜、粋も不粋も
TTITLE13=壁にかかれた〜、そろいの浴衣に〜、すだく虫の音〜、手柄話に
TTITLE14=おぼろ月夜に〜、恋の極楽〜、二百十日の〜、傘の柄を
TTITLE15=花は散りぎわ〜、うちとけた〜、月の薄の〜、世間へたてつく
TTITLE16=空どけの〜、何も言われず〜、紅皿で〜、他人にだけなら
TTITLE17=三千歳（新内入り）
TTITLE18=勧進帳
EXTD=
EXTT0=
EXTT1=
EXTT2=
EXTT3=
EXTT4=
EXTT5=
EXTT6=
EXTT7=
EXTT8=
EXTT9=
EXTT10=
EXTT11=
EXTT12=
EXTT13=
EXTT14=
EXTT15=
EXTT16=
EXTT17=
EXTT18=
PLAYORDER=
